<?xml version="1.0" encoding="UTF-8" standalone="no"?>
<!-- Created with Inkscape (http://www.inkscape.org/) -->

<svg
   width="32mm"
   height="32mm"
   viewBox="0 0 32 32"
   version="1.1"
   id="svg1"
   xml:space="preserve"
   inkscape:version="1.3.2 (091e20ef0f, 2023-11-25)"
   sodipodi:docname="Reload_scenegraph.svg"
   xmlns:inkscape="http://www.inkscape.org/namespaces/inkscape"
   xmlns:sodipodi="http://sodipodi.sourceforge.net/DTD/sodipodi-0.dtd"
   xmlns:xlink="http://www.w3.org/1999/xlink"
   xmlns="http://www.w3.org/2000/svg"
   xmlns:svg="http://www.w3.org/2000/svg"><sodipodi:namedview
     id="namedview1"
     pagecolor="#ffffff"
     bordercolor="#000000"
     borderopacity="0.25"
     inkscape:showpageshadow="2"
     inkscape:pageopacity="0.0"
     inkscape:pagecheckerboard="0"
     inkscape:deskcolor="#d1d1d1"
     inkscape:document-units="mm"
     inkscape:zoom="4.6729323"
     inkscape:cx="53.392599"
     inkscape:cy="62.915527"
     inkscape:window-width="1920"
     inkscape:window-height="1012"
     inkscape:window-x="0"
     inkscape:window-y="0"
     inkscape:window-maximized="1"
     inkscape:current-layer="layer1" /><defs
     id="defs1"><linearGradient
       id="swatch20"
       inkscape:swatch="solid"><stop
         style="stop-color:#000000;stop-opacity:1;"
         offset="0"
         id="stop20" /></linearGradient><rect
       x="34.136782"
       y="42.12599"
       width="55.080376"
       height="38.981377"
       id="rect13" /><linearGradient
       id="swatch6"
       inkscape:swatch="solid"><stop
         style="stop-color:#d17070;stop-opacity:1;"
         offset="0"
         id="stop6" /></linearGradient><linearGradient
       inkscape:collect="always"
       xlink:href="#swatch20"
       id="linearGradient20"
       x1="-0.43358431"
       y1="16.015674"
       x2="32.356085"
       y2="16.015674"
       gradientUnits="userSpaceOnUse"
       gradientTransform="matrix(0.95237015,0,0,0.93809918,0.87158412,1.1033609)" /></defs><g
     inkscape:label="Warstwa 1"
     inkscape:groupmode="layer"
     id="layer1"><path
       style="fill:#00ffff;fill-opacity:1;stroke:url(#linearGradient20);stroke-width:1.11093"
       d="M 5.3530002,30.698878 C 5.0271101,30.400335 5.0726227,30.625771 4.3934335,25.945907 3.7891405,21.782104 3.734388,21.183296 3.9258029,20.831606 c 0.2665969,-0.489825 0.5644609,-0.478321 5.4362652,0.209953 4.3014789,0.607697 4.6521849,0.67428 4.8561279,0.921933 0.125856,0.152832 0.219817,0.446778 0.219817,0.687679 0,0.370943 -0.103496,0.521835 -0.874348,1.274761 -0.480893,0.469709 -0.835597,0.888984 -0.788232,0.931723 0.175402,0.158274 1.481641,0.463806 2.441344,0.571033 2.771904,0.309708 5.49176,-0.662816 7.570645,-2.706992 1.68183,-1.65375 2.502526,-3.363751 2.767893,-5.767164 0.12171,-1.102315 0.17144,-1.271607 0.45619,-1.552954 0.385791,-0.381183 0.394797,-0.381313 2.710826,-0.03896 2.470624,0.365204 2.466896,0.362035 2.376402,2.019696 -0.189975,3.47999 -1.926148,7.063218 -4.637584,9.571356 -2.811499,2.600702 -6.386903,3.976279 -10.338516,3.977573 -2.388893,7.83e-4 -4.540543,-0.486644 -6.6754013,-1.512218 l -0.9768389,-0.46927 -1.0298885,0.990974 c -0.8900967,0.856465 -1.0844173,0.990975 -1.4316186,0.990975 -0.2421458,0 -0.5026915,-0.09249 -0.6558855,-0.23283 z M 17.555544,30.578909 c 5.844281,-0.640796 10.58864,-4.291804 12.448353,-9.579595 0.615126,-1.74901 1.024323,-4.206317 0.776325,-4.661972 -0.190047,-0.349179 -0.454379,-0.424947 -2.429254,-0.696328 l -1.887554,-0.259384 -0.248891,0.244735 c -0.201684,0.198316 -0.266726,0.452607 -0.342933,1.340736 -0.43259,5.041455 -4.591152,8.797466 -9.74034,8.797466 -1.742849,0 -3.795187,-0.489641 -3.795187,-0.905444 0,-0.105355 0.372544,-0.55187 0.827874,-0.992255 0.455331,-0.440383 0.868605,-0.904039 0.91839,-1.030348 C 14.225183,22.474068 13.97894,22.100664 13.513773,21.974368 12.85867,21.7965 4.7361698,20.691275 4.563348,20.756485 c -0.084904,0.03204 -0.2362422,0.181114 -0.3363059,0.331279 -0.1681825,0.252394 -0.1334008,0.605839 0.4601633,4.67612 0.4770243,3.271123 0.6918159,4.457109 0.8354907,4.613218 0.3892187,0.422901 0.7418053,0.272212 1.7920453,-0.765886 0.5430868,-0.536809 1.0554432,-0.976015 1.1385697,-0.976015 0.083126,0 0.557225,0.200164 1.0535531,0.444811 1.6806698,0.828422 3.4535128,1.335271 5.2683418,1.506199 1.343524,0.126538 1.564967,0.125958 2.780338,-0.0073 z M 3.2202272,16.924614 C 1.5398129,16.673024 1.3977473,16.62828 1.1635684,16.276842 0.77128198,15.688133 1.2191658,12.573059 1.9621769,10.722444 3.6550807,6.5059391 7.0401492,3.3540825 11.321619,2.0078152 c 1.773364,-0.5576171 3.213727,-0.7406594 5.274554,-0.6702935 2.205861,0.075318 3.878161,0.468202 5.787343,1.3596567 l 1.29108,0.6028454 0.957713,-0.9235646 c 0.52674,-0.5079605 1.057691,-0.957848 1.179891,-0.99975 0.395196,-0.1355136 1.01216,0.1503712 1.177153,0.5454624 0.08283,0.1983356 0.430854,2.3072853 0.773394,4.6865549 0.672427,4.6706395 0.674573,4.8125315 0.07775,5.1419295 -0.290658,0.160415 -0.662845,0.12615 -4.727846,-0.435283 -2.4268,-0.335175 -4.588226,-0.663029 -4.803177,-0.728567 C 17.865368,10.451403 17.559248,9.906471 17.670163,9.4487525 17.707,9.2967051 18.134219,8.7741511 18.619524,8.2875212 19.498705,7.4059446 19.50082,7.4023348 19.203202,7.2910697 17.426191,6.6267313 14.965008,6.6022307 13.047792,7.2297934 11.594141,7.7056179 10.528355,8.3662614 9.3583031,9.516779 7.6622019,11.184563 6.8661923,12.856921 6.573118,15.368251 6.3792622,17.029387 6.2855687,17.157966 5.2822749,17.139725 4.8908152,17.132608 3.9628938,17.035808 3.2202272,16.924614 Z M 5.9160444,16.71438 C 6.139964,16.53609 6.192026,16.343108 6.2740311,15.387408 6.5790645,11.83251 8.523125,8.9811831 11.713813,7.4089535 c 1.722873,-0.8489556 4.256491,-1.1614797 6.235122,-0.7691086 0.988632,0.1960497 1.977501,0.5511075 1.977501,0.7100306 0,0.046807 -0.45067,0.5379623 -1.001489,1.0914552 -1.08606,1.0913355 -1.175221,1.3334578 -0.633361,1.7199263 0.358949,0.256011 8.734842,1.45726 9.252636,1.326989 0.21663,-0.0545 0.345591,-0.181354 0.400925,-0.394367 C 27.993962,10.90596 27.778609,9.0507241 27.408864,6.4739071 26.880875,2.7942451 26.755907,2.1303791 26.549677,1.9095993 26.416944,1.7675029 26.205642,1.6512422 26.080114,1.6512422 c -0.129001,0 -0.669242,0.4243484 -1.242572,0.9760154 -0.557887,0.5368087 -1.087864,0.9760156 -1.177725,0.9760156 -0.08986,0 -0.559378,-0.2015156 -1.043376,-0.4478127 C 19.225478,1.4298617 15.091728,1.1334879 11.337502,2.3468046 5.8449925,4.1219096 1.9957319,8.8576269 1.368399,14.611717 c -0.09729,0.89237 -0.08764,1.132478 0.056526,1.406611 0.095612,0.181809 0.2119036,0.334381 0.258424,0.339053 0.04652,0.0047 0.8728131,0.127943 1.8362064,0.273937 2.2052085,0.33418 2.0862861,0.330057 2.3964888,0.08306 z"
       id="path13" /><text
       xml:space="preserve"
       transform="scale(0.26458333)"
       id="text13"
       style="fill:#008080;stroke:#000000;stroke-opacity:1;white-space:pre;shape-inside:url(#rect13)" /><text
       xml:space="preserve"
       style="font-style:normal;font-variant:normal;font-weight:normal;font-stretch:normal;font-size:12.7px;font-family:'DejaVu Sans';-inkscape-font-specification:'DejaVu Sans';fill:#008080;stroke:#000000;stroke-width:0.264583;stroke-opacity:1"
       x="14.188622"
       y="16.97555"
       id="text14"><tspan
         sodipodi:role="line"
         id="tspan14"
         x="14.188622"
         y="16.97555"
         style="stroke-width:0.264583;font-size:12.7px" /></text><text
       xml:space="preserve"
       style="font-style:normal;font-variant:normal;font-weight:bold;font-stretch:normal;font-size:17.1874px;font-family:'DejaVu Sans';-inkscape-font-specification:'DejaVu Sans Bold';fill:#ff0000;stroke:#000000;stroke-width:0.358073;stroke-opacity:1"
       x="4.403091"
       y="21.005579"
       id="text15"
       transform="scale(0.90003744,1.1110649)"><tspan
         sodipodi:role="line"
         id="tspan15"
         x="4.403091"
         y="21.005579"
         style="font-style:normal;font-variant:normal;font-weight:bold;font-stretch:normal;font-family:'DejaVu Sans';-inkscape-font-specification:'DejaVu Sans Bold';fill:#ff0000;stroke-width:0.358073">SG</tspan></text><path
       style="fill:#008080;fill-opacity:1;stroke:none;stroke-width:0.213998;stroke-opacity:1"
       d="m 20.00885,61.578694 c -0.353098,-0.03799 -3.215192,-0.450918 -6.360209,-0.917612 -3.145017,-0.466692 -5.8197056,-0.848531 -5.9437519,-0.848531 -0.8237047,0 -0.6469296,-3.583697 0.4486312,-9.094932 C 10.175771,40.54466 15.190859,31.137297 22.470947,23.860821 34.532531,11.805221 52.252679,6.1913318 69.335479,9.0137503 c 5.194775,0.8582803 9.856081,2.3762207 15.410245,5.0183027 4.242199,2.017988 4.917492,2.104605 6.738589,0.864326 0.706195,-0.480963 2.535881,-2.031063 4.065969,-3.444667 2.442129,-2.2562118 3.316975,-2.900785 3.316975,-2.4438956 0,0.069786 0.187977,1.0568536 0.417723,2.1934836 0.81654,4.039648 3.61295,23.862131 3.98219,28.227904 l 0.14932,1.765487 h -0.74676 c -0.41072,0 -1.19355,-0.06124 -1.73962,-0.136086 L 99.937249,40.922517 V 39.455763 37.98901 l -1.872486,-0.936905 c -3.675745,-1.839168 -7.36454,-2.814688 -11.85761,-3.135804 -5.304192,-0.379085 -9.881495,0.374179 -13.732677,2.259918 -0.925629,0.453235 -1.315549,0.544157 -1.664982,0.388233 -0.420349,-0.187563 -0.20787,-0.462701 2.697242,-3.492627 3.516107,-3.667174 3.95873,-4.268945 3.959882,-5.383673 0.002,-1.898525 -2.279301,-3.138931 -8.452136,-4.595731 -1.980031,-0.467291 -3.037346,-0.573543 -6.655682,-0.668847 -4.797831,-0.12637 -7.389908,0.08973 -11.196357,0.933426 -6.53225,1.447869 -12.013596,4.313939 -17.357419,9.075794 -1.411358,1.257653 -1.770485,1.467599 -2.888978,1.688892 -4.358965,0.862422 -7.504869,2.816579 -9.594536,5.959888 -1.135275,1.707696 -1.733333,3.150903 -2.275914,5.492131 -1.142297,4.929 -0.581755,10.529475 1.423011,14.217551 0.829719,1.526395 0.729656,1.91542 -0.459757,1.787438 z"
       id="path29"
       transform="scale(0.26458333)" /><path
       style="fill:#008080;fill-opacity:1;stroke:none;stroke-width:0.213998;stroke-opacity:1"
       d="m 56.100809,113.41968 c -6.973928,-0.80048 -12.284961,-2.31311 -18.907167,-5.38493 -4.641725,-2.15314 -5.168142,-2.28803 -6.486817,-1.66228 -0.389743,0.18494 -2.267781,1.77388 -4.173419,3.53097 -1.905638,1.75709 -3.589082,3.19471 -3.740987,3.19471 -0.438076,0 -1.327053,-5.16977 -3.514253,-20.436846 -1.113363,-7.771482 -1.544147,-11.44111 -1.375413,-11.716412 0.0541,-0.08827 0.285286,-0.160499 0.513738,-0.160499 0.388826,0 0.415368,0.169561 0.415368,2.653576 v 2.653578 l 1.807868,0.756788 c 2.45638,1.02826 5.395685,1.951638 8.061821,2.532607 1.944056,0.42362 2.82203,0.483454 7.036184,0.47951 4.285929,-0.004 5.003064,-0.05611 6.526951,-0.474152 2.351818,-0.645171 4.605968,-1.795549 6.248194,-3.188693 1.105702,-0.937996 1.484447,-1.145585 1.899876,-1.041321 0.285375,0.07163 0.518864,0.236646 0.518864,0.366714 0,0.130066 -1.168617,1.44547 -2.596928,2.923113 -3.058852,3.164508 -3.823353,4.262106 -3.822223,5.487578 0.0021,2.285435 2.127525,3.613002 7.550833,4.71636 7.487607,1.523339 14.923574,1.117849 21.861983,-1.192144 4.225354,-1.40674 8.88806,-3.949754 11.998011,-6.54365 1.080807,-0.901461 1.474969,-1.09761 2.460981,-1.224678 3.320361,-0.427898 8.32014,-2.120487 11.35798,-3.845046 l 1.585986,-0.900353 0.0553,-12.137818 0.0553,-12.137818 0.47973,5.76e-4 c 0.77762,9.34e-4 10.68039,1.471621 11.53286,1.712776 0.42966,0.121546 0.84201,0.37947 0.91634,0.573164 0.36618,0.954254 -0.83818,8.082259 -2.13729,12.649568 -3.4167,12.01216 -10.94915,22.173791 -21.602091,29.142242 -2.805119,1.83493 -7.863694,4.34916 -11.127916,5.53084 -7.422134,2.68689 -16.612832,3.92097 -23.399594,3.14197 z"
       id="path30"
       transform="scale(0.26458333)" /></g></svg>
