<?xml version="1.0" encoding="UTF-8" standalone="no"?>
<!-- Created with Inkscape (http://www.inkscape.org/) -->

<svg
   width="32mm"
   height="32mm"
   viewBox="0 0 32 32"
   version="1.1"
   id="svg1"
   xml:space="preserve"
   inkscape:version="1.4.2 (ebf0e940d0, 2025-05-08)"
   sodipodi:docname="TPPCam_toggle.svg"
   xmlns:inkscape="http://www.inkscape.org/namespaces/inkscape"
   xmlns:sodipodi="http://sodipodi.sourceforge.net/DTD/sodipodi-0.dtd"
   xmlns:xlink="http://www.w3.org/1999/xlink"
   xmlns="http://www.w3.org/2000/svg"
   xmlns:svg="http://www.w3.org/2000/svg"><sodipodi:namedview
     id="namedview1"
     pagecolor="#ffffff"
     bordercolor="#000000"
     borderopacity="0.25"
     inkscape:showpageshadow="2"
     inkscape:pageopacity="0.0"
     inkscape:pagecheckerboard="0"
     inkscape:deskcolor="#d1d1d1"
     inkscape:document-units="mm"
     inkscape:zoom="4.6729323"
     inkscape:cx="53.499598"
     inkscape:cy="63.236525"
     inkscape:window-width="2560"
     inkscape:window-height="1372"
     inkscape:window-x="0"
     inkscape:window-y="0"
     inkscape:window-maximized="1"
     inkscape:current-layer="layer1" /><defs
     id="defs1"><linearGradient
       id="swatch20"
       inkscape:swatch="solid"><stop
         style="stop-color:#000000;stop-opacity:1;"
         offset="0"
         id="stop20" /></linearGradient><rect
       x="34.136782"
       y="42.12599"
       width="55.080376"
       height="38.981377"
       id="rect13" /><linearGradient
       id="swatch6"
       inkscape:swatch="solid"><stop
         style="stop-color:#d17070;stop-opacity:1;"
         offset="0"
         id="stop6" /></linearGradient><linearGradient
       inkscape:collect="always"
       xlink:href="#swatch20"
       id="linearGradient20"
       x1="-0.43358431"
       y1="16.015674"
       x2="32.356085"
       y2="16.015674"
       gradientUnits="userSpaceOnUse"
       gradientTransform="matrix(0.95237015,0,0,0.93809918,0.87158412,1.1033609)" /></defs><g
     inkscape:label="Warstwa 1"
     inkscape:groupmode="layer"
     id="layer1"><path
       style="fill:#00ffff;fill-opacity:1;stroke:url(#linearGradient20);stroke-width:1.11093"
       d="M 5.3530002,30.698878 C 5.0271101,30.400335 5.0726227,30.625771 4.3934335,25.945907 3.7891405,21.782104 3.734388,21.183296 3.9258029,20.831606 c 0.2665969,-0.489825 0.5644609,-0.478321 5.4362652,0.209953 4.3014789,0.607697 4.6521849,0.67428 4.8561279,0.921933 0.125856,0.152832 0.219817,0.446778 0.219817,0.687679 0,0.370943 -0.103496,0.521835 -0.874348,1.274761 -0.480893,0.469709 -0.835597,0.888984 -0.788232,0.931723 0.175402,0.158274 1.481641,0.463806 2.441344,0.571033 2.771904,0.309708 5.49176,-0.662816 7.570645,-2.706992 1.68183,-1.65375 2.502526,-3.363751 2.767893,-5.767164 0.12171,-1.102315 0.17144,-1.271607 0.45619,-1.552954 0.385791,-0.381183 0.394797,-0.381313 2.710826,-0.03896 2.470624,0.365204 2.466896,0.362035 2.376402,2.019696 -0.189975,3.47999 -1.926148,7.063218 -4.637584,9.571356 -2.811499,2.600702 -6.386903,3.976279 -10.338516,3.977573 -2.388893,7.83e-4 -4.540543,-0.486644 -6.6754013,-1.512218 l -0.9768389,-0.46927 -1.0298885,0.990974 c -0.8900967,0.856465 -1.0844173,0.990975 -1.4316186,0.990975 -0.2421458,0 -0.5026915,-0.09249 -0.6558855,-0.23283 z M 17.555544,30.578909 c 5.844281,-0.640796 10.58864,-4.291804 12.448353,-9.579595 0.615126,-1.74901 1.024323,-4.206317 0.776325,-4.661972 -0.190047,-0.349179 -0.454379,-0.424947 -2.429254,-0.696328 l -1.887554,-0.259384 -0.248891,0.244735 c -0.201684,0.198316 -0.266726,0.452607 -0.342933,1.340736 -0.43259,5.041455 -4.591152,8.797466 -9.74034,8.797466 -1.742849,0 -3.795187,-0.489641 -3.795187,-0.905444 0,-0.105355 0.372544,-0.55187 0.827874,-0.992255 0.455331,-0.440383 0.868605,-0.904039 0.91839,-1.030348 C 14.225183,22.474068 13.97894,22.100664 13.513773,21.974368 12.85867,21.7965 4.7361698,20.691275 4.563348,20.756485 c -0.084904,0.03204 -0.2362422,0.181114 -0.3363059,0.331279 -0.1681825,0.252394 -0.1334008,0.605839 0.4601633,4.67612 0.4770243,3.271123 0.6918159,4.457109 0.8354907,4.613218 0.3892187,0.422901 0.7418053,0.272212 1.7920453,-0.765886 0.5430868,-0.536809 1.0554432,-0.976015 1.1385697,-0.976015 0.083126,0 0.557225,0.200164 1.0535531,0.444811 1.6806698,0.828422 3.4535128,1.335271 5.2683418,1.506199 1.343524,0.126538 1.564967,0.125958 2.780338,-0.0073 z M 3.2202272,16.924614 C 1.5398129,16.673024 1.3977473,16.62828 1.1635684,16.276842 0.77128198,15.688133 1.2191658,12.573059 1.9621769,10.722444 3.6550807,6.5059391 7.0401492,3.3540825 11.321619,2.0078152 c 1.773364,-0.5576171 3.213727,-0.7406594 5.274554,-0.6702935 2.205861,0.075318 3.878161,0.468202 5.787343,1.3596567 l 1.29108,0.6028454 0.957713,-0.9235646 c 0.52674,-0.5079605 1.057691,-0.957848 1.179891,-0.99975 0.395196,-0.1355136 1.01216,0.1503712 1.177153,0.5454624 0.08283,0.1983356 0.430854,2.3072853 0.773394,4.6865549 0.672427,4.6706395 0.674573,4.8125315 0.07775,5.1419295 -0.290658,0.160415 -0.662845,0.12615 -4.727846,-0.435283 -2.4268,-0.335175 -4.588226,-0.663029 -4.803177,-0.728567 C 17.865368,10.451403 17.559248,9.906471 17.670163,9.4487525 17.707,9.2967051 18.134219,8.7741511 18.619524,8.2875212 19.498705,7.4059446 19.50082,7.4023348 19.203202,7.2910697 17.426191,6.6267313 14.965008,6.6022307 13.047792,7.2297934 11.594141,7.7056179 10.528355,8.3662614 9.3583031,9.516779 7.6622019,11.184563 6.8661923,12.856921 6.573118,15.368251 6.3792622,17.029387 6.2855687,17.157966 5.2822749,17.139725 4.8908152,17.132608 3.9628938,17.035808 3.2202272,16.924614 Z M 5.9160444,16.71438 C 6.139964,16.53609 6.192026,16.343108 6.2740311,15.387408 6.5790645,11.83251 8.523125,8.9811831 11.713813,7.4089535 c 1.722873,-0.8489556 4.256491,-1.1614797 6.235122,-0.7691086 0.988632,0.1960497 1.977501,0.5511075 1.977501,0.7100306 0,0.046807 -0.45067,0.5379623 -1.001489,1.0914552 -1.08606,1.0913355 -1.175221,1.3334578 -0.633361,1.7199263 0.358949,0.256011 8.734842,1.45726 9.252636,1.326989 0.21663,-0.0545 0.345591,-0.181354 0.400925,-0.394367 C 27.993962,10.90596 27.778609,9.0507241 27.408864,6.4739071 26.880875,2.7942451 26.755907,2.1303791 26.549677,1.9095993 26.416944,1.7675029 26.205642,1.6512422 26.080114,1.6512422 c -0.129001,0 -0.669242,0.4243484 -1.242572,0.9760154 -0.557887,0.5368087 -1.087864,0.9760156 -1.177725,0.9760156 -0.08986,0 -0.559378,-0.2015156 -1.043376,-0.4478127 C 19.225478,1.4298617 15.091728,1.1334879 11.337502,2.3468046 5.8449925,4.1219096 1.9957319,8.8576269 1.368399,14.611717 c -0.09729,0.89237 -0.08764,1.132478 0.056526,1.406611 0.095612,0.181809 0.2119036,0.334381 0.258424,0.339053 0.04652,0.0047 0.8728131,0.127943 1.8362064,0.273937 2.2052085,0.33418 2.0862861,0.330057 2.3964888,0.08306 z"
       id="path13" /><text
       xml:space="preserve"
       transform="scale(0.26458333)"
       id="text13"
       style="fill:#008080;stroke:#000000;stroke-opacity:1;white-space:pre;shape-inside:url(#rect13)" /><text
       xml:space="preserve"
       style="font-style:normal;font-variant:normal;font-weight:normal;font-stretch:normal;font-size:12.7px;font-family:'DejaVu Sans';-inkscape-font-specification:'DejaVu Sans';fill:#008080;stroke:#000000;stroke-width:0.264583;stroke-opacity:1"
       x="14.188622"
       y="16.97555"
       id="text14"><tspan
         sodipodi:role="line"
         id="tspan14"
         x="14.188622"
         y="16.97555"
         style="stroke-width:0.264583;font-size:12.7px" /></text><path
       style="fill:#008080;fill-opacity:1;stroke:#042a2a;stroke-width:0.427997;stroke-linecap:round"
       d="M 19.045857,61.477201 C 11.962887,60.481963 7.5219635,59.717593 7.3628202,59.466318 6.7417027,58.485626 7.8402277,50.850088 9.3085539,45.942074 14.037745,30.134318 25.867769,17.509733 41.30169,11.800123 48.305938,9.208977 54.37416,8.2131184 61.952535,8.4111026 c 8.421087,0.22 14.253746,1.6314734 22.255832,5.3857974 1.824337,0.85592 3.684374,1.67438 4.133418,1.818799 1.651186,0.531047 2.60374,0.0196 6.325005,-3.396013 3.234307,-2.9686556 3.93334,-3.5102854 4.113933,-3.1875866 0.538666,0.962544 3.187427,18.9251336 4.578157,31.0467346 l 0.14205,1.238127 -1.46084,-0.135844 C 98.89108,40.88829 88.729858,39.57031 83.138375,38.729435 77.78322,37.924102 70.507788,36.660377 70.356701,36.509288 c -0.03364,-0.03363 1.482388,-1.685383 3.36894,-3.67055 3.87168,-4.074064 4.186534,-4.614575 3.501889,-6.011713 C 76.747523,25.847486 75.912557,25.25574 73.980971,24.52617 64.541106,20.960685 51.69376,21.718895 42.607932,26.377708 30.20305,32.738386 22.952508,43.632875 21.495612,58.100564 c -0.142227,1.412389 -0.339951,2.784654 -0.439385,3.049477 -0.185061,0.492868 -0.484382,0.54158 -2.01037,0.32716 z"
       id="path1"
       transform="scale(0.26458333)" /><path
       style="fill:#008080;fill-opacity:1;stroke:#042a2a;stroke-width:0.427997;stroke-linecap:round"
       d="m 59.705551,113.70565 c -9.740887,-0.7948 -14.401993,-1.97744 -22.71121,-5.76241 -1.898245,-0.86468 -3.836003,-1.65857 -4.306129,-1.7642 -1.631227,-0.36651 -2.095903,-0.0615 -7.413735,4.86593 -1.282223,1.1881 -2.40725,2.16018 -2.50006,2.16018 -0.09281,0 -0.221607,-0.16852 -0.286215,-0.3745 -0.391737,-1.24886 -3.175051,-19.272449 -4.182729,-27.085614 -0.470895,-3.651148 -0.541935,-5.067642 -0.254151,-5.067642 0.475082,0 11.360823,1.399573 17.57941,2.260176 9.432716,1.30541 15.029206,2.197509 15.264987,2.43329 0.118795,0.118795 -0.847767,1.283659 -2.451985,2.955033 -3.079062,3.207965 -3.82416,4.211624 -3.96154,5.336264 -0.342008,2.799784 3.606065,4.709257 11.664519,5.641509 3.180592,0.367949 9.337229,0.16158 12.389972,-0.415313 8.55951,-1.617532 16.497126,-6.093805 22.047005,-12.433002 5.453642,-6.229274 8.51115,-13.543886 9.4679,-22.650479 0.27836,-2.649497 0.47244,-3.243327 1.06002,-3.243327 0.9759,0 11.10613,1.528192 12.17759,1.837047 l 1.15405,0.332658 -0.12506,1.964625 c -0.15959,2.507205 -0.60072,5.022902 -1.56403,8.919572 -5.34351,21.614803 -23.150418,36.907543 -46.20066,39.677573 -2.940259,0.35335 -5.605957,0.51397 -6.847949,0.41263 z"
       id="path2"
       transform="scale(0.26458333)" /><rect
       style="fill:#ffffff;fill-opacity:1;stroke:#042a2a;stroke-width:0.74636;stroke-linecap:round"
       id="rect1"
       width="17.590059"
       height="15.060568"
       x="7.6782842"
       y="8.7738771"
       ry="2.7705994"
       rx="2.7171218" /><path
       style="fill:#ffffff;fill-opacity:1;stroke:#042a2a;stroke-width:0.74636;stroke-linecap:round"
       d="M 7.3759316,12.74386 1.5190187,8.8535958 C -0.04980584,13.920925 0.10762166,18.774318 1.5793999,23.2775 l 5.7361507,-3.291763"
       id="path4"
       sodipodi:nodetypes="cccc" /><path
       style="fill:#ffffff;fill-opacity:1;stroke:#042a2a;stroke-width:0.728463;stroke-linecap:round"
       d="M 1.6346226,9.0332559 C 2.9137227,14.083203 2.6446784,18.679405 1.7495522,23.051528"
       id="path5"
       sodipodi:nodetypes="cc" /><path
       style="fill:#cccccc;stroke:#042a2a;stroke-width:0.427997;stroke-linecap:round"
       d="M 8.7481438,83.862531 C 9.6970075,79.161757 10.533875,71.759064 10.831027,65.437952 11.238599,56.76793 10.480706,47.061462 8.7559685,38.862309 8.585157,38.050295 8.4853107,37.346012 8.5340879,37.297234 c 0.048777,-0.04878 4.2900491,2.710107 9.4250491,6.130854 5.135,3.420746 9.430254,6.219539 9.545009,6.219539 0.243679,0 0.285465,13.432647 0.06224,20.00885 l -0.145279,4.279968 -9.172206,5.24296 c -5.044713,2.883629 -9.2790192,5.279933 -9.4095692,5.325121 -0.1611899,0.05579 -0.1904546,-0.150233 -0.091191,-0.641995 z"
       id="path10"
       transform="scale(0.26458333)" /></g></svg>
